<?xml version="1.0" encoding="UTF-8"?>
<svg width="106px" height="150px" viewBox="0 0 106 150" version="1.1" xmlns="http://www.w3.org/2000/svg" xmlns:xlink="http://www.w3.org/1999/xlink">
    <title>noun_Llama_3263829</title>
    <g id="Page-1" stroke="none" stroke-width="1" fill="none" fill-rule="evenodd">
        <g id="noun_Llama_3263829" fill="#000000" fill-rule="nonzero">
            <path d="M105.24,83.04 C105.24,77.29 99.59,72.61 92.64,72.61 C89.39,72.61 86.44,73.64 84.2,75.31 C81.12,73.35 77.47,72.21 73.59,72.21 L47.35,72.21 C47.56,71.33 47.67,70.43 47.67,69.5 C47.67,67.14 46.97,64.89 45.69,63 C46.97,61.11 47.67,58.86 47.67,56.49 C47.67,53.25 46.32,50.24 44.07,48.09 C46.52,44.67 47.83,40.68 47.83,36.51 C47.83,32.23 46.44,28.25 44.05,24.92 C44.56,22.64 44.82,20.18 44.82,17.77 C44.82,9.56 41.92,0.72 35.54,0.72 C29.76,0.72 26.84,7.96 26.34,15.42 C25.81,15.39 25.29,15.36 24.75,15.36 C24.22,15.36 23.7,15.39 23.17,15.42 C22.67,7.96 19.75,0.72 13.97,0.72 C7.59,0.72 4.69,9.56 4.69,17.77 C4.69,20.18 4.95,22.64 5.46,24.92 C3.07,28.25 1.68,32.23 1.68,36.51 C1.68,41.29 3.46,45.9 6.66,49.6 C5.21,51.57 4.4,53.96 4.4,56.49 C4.4,58.86 5.1,61.11 6.38,63 C5.1,64.89 4.4,67.14 4.4,69.5 C4.4,71.15 4.75,72.76 5.41,74.24 C2.57,76.39 0.76,79.81 0.76,83.53 C0.76,86.2 1.66,88.72 3.26,90.74 C1.66,92.75 0.76,95.27 0.76,97.95 C0.76,102.16 3.07,105.92 6.52,107.96 C6.55,115.81 8.93,122.99 12.85,127.23 L12.85,141.74 C12.85,145.9 16.23,149.28 20.39,149.28 L22.05,149.28 C26.21,149.28 29.59,145.9 29.59,141.74 L29.59,127.23 C29.96,126.83 30.31,126.4 30.65,125.95 C30.99,126.4 31.34,126.83 31.71,127.23 L31.71,141.74 C31.71,145.9 35.09,149.28 39.25,149.28 L40.91,149.28 C45.07,149.28 48.45,145.9 48.45,141.74 L48.45,127.23 C50.44,125.08 52.05,122.15 53.15,118.71 L53.46,118.71 C54.55,122.11 56.15,125.06 58.16,127.23 L58.16,141.74 C58.16,145.9 61.54,149.28 65.7,149.28 L67.36,149.28 C71.52,149.28 74.9,145.9 74.9,141.74 L74.9,127.23 C75.35,126.75 75.77,126.22 76.17,125.67 C76.58,126.22 77,126.75 77.44,127.23 L77.44,141.74 C77.44,145.9 80.83,149.28 84.99,149.28 L86.65,149.28 C90.8,149.28 94.19,145.9 94.19,141.74 L94.19,127.23 C98.12,122.96 100.52,115.71 100.52,107.8 C100.52,102.13 99.3,96.87 97.19,92.77 C101.9,91.25 105.24,87.47 105.24,83.04 Z M35.54,7.99 C36.42,9.09 37.82,12.48 37.82,17.77 C37.82,18.22 37.8,18.64 37.78,19.06 C36.38,18.19 34.87,17.45 33.28,16.87 C33.43,12.1 34.71,9.03 35.54,7.99 Z M13.97,7.99 C14.8,9.03 16.08,12.1 16.23,16.87 C14.64,17.45 13.13,18.19 11.73,19.06 C11.71,18.64 11.69,18.22 11.69,17.77 C11.69,12.48 13.09,9.09 13.97,7.99 Z M23.8,123.11 L22.59,124.16 L22.59,141.74 C22.59,142.04 22.35,142.28 22.05,142.28 L20.39,142.28 C20.09,142.28 19.85,142.04 19.85,141.74 L19.85,124.16 L18.63,123.11 C17.7,122.3 16.77,121.04 15.96,119.4 C18.27,120.74 20.89,121.46 23.63,121.46 L25.26,121.46 C24.79,122.13 24.3,122.68 23.8,123.11 Z M69.11,123.11 L67.9,124.16 L67.9,141.74 C67.9,142.04 67.66,142.28 67.36,142.28 L65.7,142.28 C65.4,142.28 65.16,142.04 65.16,141.74 L65.16,124.16 L63.94,123.11 C62.89,122.19 61.83,120.69 60.95,118.71 L72.11,118.71 C71.23,120.69 70.17,122.19 69.11,123.11 Z M88.4,123.11 C87.63,123.77 87.19,124.74 87.19,125.76 L87.19,141.74 C87.19,142.04 86.95,142.28 86.65,142.28 L84.99,142.28 C84.69,142.28 84.44,142.04 84.44,141.74 L84.44,125.76 C84.44,124.74 84,123.77 83.23,123.11 C81.3,121.44 79.7,118.28 78.83,114.44 C78.47,112.84 77.05,111.71 75.42,111.71 L50.48,111.71 C48.84,111.71 47.43,112.84 47.07,114.44 C46.2,118.28 44.6,121.44 42.67,123.11 C41.9,123.77 41.45,124.74 41.45,125.76 L41.45,141.74 C41.45,142.04 41.21,142.28 40.91,142.28 L39.25,142.28 C38.95,142.28 38.71,142.04 38.71,141.74 L38.71,125.76 C38.71,124.74 38.27,123.77 37.5,123.11 C36.01,121.83 34.69,119.6 33.77,116.85 C33.29,115.42 31.96,114.46 30.45,114.46 L23.63,114.46 C21.38,114.46 19.27,113.58 17.68,112 C16.09,110.41 15.22,108.29 15.22,106.05 C15.22,104.23 13.82,102.71 12.01,102.56 C9.62,102.36 7.76,100.34 7.76,97.95 C7.76,96.22 8.71,94.64 10.25,93.84 C11.41,93.24 12.13,92.04 12.13,90.74 C12.13,89.43 11.41,88.24 10.25,87.63 C8.71,86.83 7.76,85.26 7.76,83.53 C7.76,81.37 9.29,79.47 11.39,79.01 C12.68,78.72 13.7,77.74 14.03,76.47 C14.36,75.19 13.95,73.84 12.96,72.97 C11.95,72.07 11.4,70.84 11.4,69.5 C11.4,68.04 12.08,66.69 13.26,65.8 C14.14,65.14 14.66,64.1 14.66,63 C14.66,61.9 14.14,60.86 13.26,60.2 C12.08,59.31 11.4,57.96 11.4,56.49 C11.4,54.9 12.21,53.44 13.56,52.58 C14.51,51.98 15.12,50.95 15.18,49.83 C15.25,48.7 14.77,47.61 13.89,46.9 C10.53,44.18 8.68,40.49 8.68,36.51 C8.68,28.71 15.89,22.36 24.75,22.36 C33.62,22.36 40.83,28.71 40.83,36.51 C40.83,40.15 39.25,43.61 36.38,46.26 C35.48,47.09 35.08,48.33 35.32,49.54 C35.57,50.74 36.43,51.72 37.58,52.13 C39.43,52.79 40.67,54.54 40.67,56.49 C40.67,57.96 39.99,59.31 38.81,60.2 C37.93,60.86 37.41,61.9 37.41,63 C37.41,64.1 37.93,65.14 38.81,65.8 C39.99,66.69 40.67,68.04 40.67,69.5 C40.67,70.87 40.07,72.16 39.03,73.04 C37.91,73.99 37.5,75.54 38,76.92 C38.51,78.3 39.82,79.21 41.29,79.21 L73.59,79.21 C79.74,79.21 85.02,83.6 86.13,89.65 C86.31,90.61 86.88,91.45 87.7,91.97 C90.5,93.75 93.52,99.46 93.52,107.8 C93.52,115.32 90.95,120.91 88.4,123.11 Z M92.64,86.48 L92.55,86.48 C91.89,84.19 90.84,82.09 89.48,80.24 C90.35,79.85 91.43,79.61 92.64,79.61 C95.94,79.61 98.24,81.42 98.24,83.04 C98.24,84.67 95.94,86.48 92.64,86.48 Z" id="Shape"></path>
            <path d="M20.26,31.71 C20.26,33.39 18.9,34.75 17.22,34.75 C15.54,34.75 14.18,33.39 14.18,31.71 C14.18,30.03 15.54,28.67 17.22,28.67 C18.9,28.67 20.26,30.03 20.26,31.71 Z" id="Path"></path>
            <path d="M35.29,31.71 C35.29,33.39 33.92,34.75 32.25,34.75 C30.57,34.75 29.21,33.39 29.21,31.71 C29.21,30.03 30.57,28.67 32.25,28.67 C33.92,28.67 35.29,30.03 35.29,31.71 Z" id="Path"></path>
            <path d="M20.8,39.567 C20.8,40.639 21.478,41.546 22.425,41.901 C22.156,42.989 21.179,43.801 20.01,43.801 C18.629,43.801 17.51,44.92 17.51,46.301 C17.51,47.682 18.629,48.801 20.01,48.801 C21.919,48.801 23.658,48.077 24.983,46.898 C26.308,48.078 28.047,48.801 29.956,48.801 C31.337,48.801 32.456,47.682 32.456,46.301 C32.456,44.92 31.337,43.801 29.956,43.801 C28.791,43.801 27.818,42.995 27.545,41.914 C28.513,41.569 29.21,40.654 29.21,39.567 C29.21,38.186 28.091,37.067 26.71,37.067 L23.3,37.067 C21.919,37.067 20.8,38.186 20.8,39.567 Z" id="Path"></path>
        </g>
    </g>
</svg>