<svg xmlns="http://www.w3.org/2000/svg" xmlns:xlink="http://www.w3.org/1999/xlink" version="1.1" x="0px" y="0px" viewBox="0 0 60 75" style="enable-background:new 0 0 60 60;" xml:space="preserve"><g><path d="M48,60H36c-0.552,0-1-0.448-1-1V11c0-0.552,0.448-1,1-1h12c0.552,0,1,0.448,1,1v48C49,59.552,48.552,60,48,60z M37,58h10   V12H37V58z"/><path d="M55,60h-7c-0.552,0-1-0.448-1-1V30c0-0.552,0.448-1,1-1h7c0.552,0,1,0.448,1,1v29C56,59.552,55.552,60,55,60z M49,58h5V31   h-5V58z"/><path d="M36,50h-8c-0.552,0-1-0.448-1-1V26c0-0.552,0.448-1,1-1h8c0.552,0,1,0.448,1,1v23C37,49.552,36.552,50,36,50z M29,48h6V27   h-6V48z"/><path d="M20,60H6c-0.552,0-1-0.448-1-1V19c0-0.552,0.448-1,1-1h14c0.552,0,1,0.448,1,1v40C21,59.552,20.552,60,20,60z M7,58h12V20   H7V58z"/><path d="M18,20H8c-0.552,0-1-0.448-1-1v-6c0-0.552,0.448-1,1-1h10c0.552,0,1,0.448,1,1v6C19,19.552,18.552,20,18,20z M9,18h8v-4H9   V18z"/><path d="M36,60H20c-0.552,0-1-0.448-1-1V49c0-0.552,0.448-1,1-1h16c0.552,0,1,0.448,1,1v10C37,59.552,36.552,60,36,60z M21,58h14   v-8H21V58z"/><path d="M59,60H1c-0.552,0-1-0.448-1-1s0.448-1,1-1h58c0.552,0,1,0.448,1,1S59.552,60,59,60z"/><path d="M16,14h-6c-0.552,0-1-0.448-1-1v-3c0-2.206,1.794-4,4-4s4,1.794,4,4v3C17,13.552,16.552,14,16,14z M11,12h4v-2   c0-1.103-0.897-2-2-2s-2,0.897-2,2V12z"/><path d="M13,8c-0.552,0-1-0.448-1-1V1c0-0.552,0.448-1,1-1s1,0.448,1,1v6C14,7.552,13.552,8,13,8z"/><path d="M31,10h-8c-2.206,0-4-1.794-4-4s1.794-4,4-4c0.177,0,0.353,0.012,0.528,0.036C24.225,0.802,25.542,0,27,0   s2.775,0.802,3.472,2.036C30.647,2.012,30.823,2,31,2c2.206,0,4,1.794,4,4S33.206,10,31,10z M23,4c-1.103,0-2,0.897-2,2   s0.897,2,2,2h8c1.103,0,2-0.897,2-2c0-1.352-1.417-2.388-2.743-1.852c-0.265,0.106-0.563,0.094-0.819-0.033   s-0.445-0.358-0.519-0.634C28.683,2.609,27.894,2,27,2s-1.683,0.609-1.919,1.481c-0.075,0.276-0.264,0.506-0.519,0.634   s-0.553,0.139-0.819,0.033C23.499,4.05,23.249,4,23,4z"/><path d="M10,27c-0.552,0-1-0.448-1-1v-2c0-0.552,0.448-1,1-1s1,0.448,1,1v2C11,26.552,10.552,27,10,27z"/><path d="M16,27c-0.552,0-1-0.448-1-1v-2c0-0.552,0.448-1,1-1s1,0.448,1,1v2C17,26.552,16.552,27,16,27z"/><path d="M13,31c-0.552,0-1-0.448-1-1v-2c0-0.552,0.448-1,1-1s1,0.448,1,1v2C14,30.552,13.552,31,13,31z"/><path d="M10,35c-0.552,0-1-0.448-1-1v-2c0-0.552,0.448-1,1-1s1,0.448,1,1v2C11,34.552,10.552,35,10,35z"/><path d="M16,35c-0.552,0-1-0.448-1-1v-2c0-0.552,0.448-1,1-1s1,0.448,1,1v2C17,34.552,16.552,35,16,35z"/><path d="M13,39c-0.552,0-1-0.448-1-1v-2c0-0.552,0.448-1,1-1s1,0.448,1,1v2C14,38.552,13.552,39,13,39z"/><path d="M10,43c-0.552,0-1-0.448-1-1v-2c0-0.552,0.448-1,1-1s1,0.448,1,1v2C11,42.552,10.552,43,10,43z"/><path d="M16,43c-0.552,0-1-0.448-1-1v-2c0-0.552,0.448-1,1-1s1,0.448,1,1v2C17,42.552,16.552,43,16,43z"/><path d="M13,47c-0.552,0-1-0.448-1-1v-2c0-0.552,0.448-1,1-1s1,0.448,1,1v2C14,46.552,13.552,47,13,47z"/><path d="M10,51c-0.552,0-1-0.448-1-1v-2c0-0.552,0.448-1,1-1s1,0.448,1,1v2C11,50.552,10.552,51,10,51z"/><path d="M16,51c-0.552,0-1-0.448-1-1v-2c0-0.552,0.448-1,1-1s1,0.448,1,1v2C17,50.552,16.552,51,16,51z"/><path d="M13,55c-0.552,0-1-0.448-1-1v-2c0-0.552,0.448-1,1-1s1,0.448,1,1v2C14,54.552,13.552,55,13,55z"/><path d="M26,55h-2c-0.552,0-1-0.448-1-1s0.448-1,1-1h2c0.552,0,1,0.448,1,1S26.552,55,26,55z"/><path d="M32,55h-2c-0.552,0-1-0.448-1-1s0.448-1,1-1h2c0.552,0,1,0.448,1,1S32.552,55,32,55z"/><path d="M40,56c-0.552,0-1-0.448-1-1V21c0-0.552,0.448-1,1-1s1,0.448,1,1v34C41,55.552,40.552,56,40,56z"/><path d="M40,18c-0.552,0-1-0.448-1-1v-2c0-0.552,0.448-1,1-1s1,0.448,1,1v2C41,17.552,40.552,18,40,18z"/><path d="M44,50c-0.552,0-1-0.448-1-1V15c0-0.552,0.448-1,1-1s1,0.448,1,1v34C45,49.552,44.552,50,44,50z"/><path d="M44,56c-0.552,0-1-0.448-1-1v-2c0-0.552,0.448-1,1-1s1,0.448,1,1v2C45,55.552,44.552,56,44,56z"/><path d="M32,46c-0.552,0-1-0.448-1-1V30c0-0.552,0.448-1,1-1s1,0.448,1,1v15C33,45.552,32.552,46,32,46z"/><path d="M28,50h-8c-0.552,0-1-0.448-1-1V33c0-0.552,0.448-1,1-1h8c0.552,0,1,0.448,1,1v16C29,49.552,28.552,50,28,50z M21,48h6V34   h-6V48z"/><path d="M24,45c-0.552,0-1-0.448-1-1v-6c0-0.552,0.448-1,1-1s1,0.448,1,1v6C25,44.552,24.552,45,24,45z"/></g><text x="0" y="75" fill="#000000" font-size="5px" font-weight="bold" font-family="'Helvetica Neue', Helvetica, Arial-Unicode, Arial, Sans-serif">Created by Prettycons</text><text x="0" y="80" fill="#000000" font-size="5px" font-weight="bold" font-family="'Helvetica Neue', Helvetica, Arial-Unicode, Arial, Sans-serif">from the Noun Project</text></svg>