<?xml version="1.0" encoding="UTF-8"?>
<svg width="75px" height="92px" viewBox="0 0 75 92" version="1.1" xmlns="http://www.w3.org/2000/svg" xmlns:xlink="http://www.w3.org/1999/xlink">
    <title>noun_Small isometric building_327028</title>
    <g id="Page-1" stroke="none" stroke-width="1" fill="none" fill-rule="evenodd">
        <g id="noun_Small-isometric-building_327028">
            <path d="M9.5,60.2 C9.4,60.2 9.3,60.2 9.3,60.1 L5.3,57.9 C5.1,57.8 5,57.6 5,57.5 L5,48.7 C5,48.5 5.1,48.4 5.2,48.3 C5.4,48.2 5.5,48.2 5.7,48.3 L9.7,50.5 C9.9,50.6 10,50.8 10,50.9 L10,59.7 C10,59.9 9.9,60 9.8,60.1 C9.7,60.1 9.6,60.2 9.5,60.2 Z M6,57.1 L9,58.8 L9,51.2 L6,49.5 L6,57.1 Z" id="Shape" fill="#010202" fill-rule="nonzero"></path>
            <path d="M16.3,64 C16.2,64 16.1,64 16.1,63.9 L12.1,61.7 C11.9,61.6 11.8,61.4 11.8,61.3 L11.8,52.5 C11.8,52.3 11.9,52.2 12,52.1 C12.2,52 12.3,52 12.5,52.1 L16.5,54.3 C16.7,54.4 16.8,54.6 16.8,54.7 L16.8,63.5 C16.8,63.7 16.7,63.8 16.6,63.9 C16.4,64 16.4,64 16.3,64 Z M12.8,61 L15.8,62.7 L15.8,55 L12.8,53.3 L12.8,61 Z" id="Shape" fill="#010202" fill-rule="nonzero"></path>
            <path d="M23,67.9 C22.9,67.9 22.8,67.9 22.8,67.8 L18.8,65.6 C18.6,65.5 18.5,65.3 18.5,65.2 L18.5,56.4 C18.5,56.2 18.6,56.1 18.7,56 C18.9,55.9 19,55.9 19.2,56 L23.2,58.2 C23.4,58.3 23.5,58.5 23.5,58.6 L23.5,67.4 C23.5,67.6 23.4,67.7 23.3,67.8 C23.2,67.8 23.1,67.9 23,67.9 Z M19.5,64.8 L22.5,66.5 L22.5,58.9 L19.5,57.2 L19.5,64.8 Z" id="Shape" fill="#010202" fill-rule="nonzero"></path>
            <path d="M29.7,71.7 C29.6,71.7 29.5,71.7 29.5,71.6 L25.5,69.4 C25.3,69.3 25.2,69.1 25.2,69 L25.2,60.2 C25.2,60 25.3,59.9 25.4,59.8 C25.6,59.7 25.7,59.7 25.9,59.8 L29.9,62 C30.1,62.1 30.2,62.3 30.2,62.4 L30.2,71.2 C30.2,71.4 30.1,71.5 30,71.6 C29.9,71.7 29.8,71.7 29.7,71.7 Z M26.2,68.7 L29.2,70.4 L29.2,62.8 L26.2,61.1 L26.2,68.7 Z" id="Shape" fill="#010202" fill-rule="nonzero"></path>
            <path d="M9.5,72.5 C9.4,72.5 9.3,72.5 9.3,72.4 L5.3,70.2 C5.1,70.1 5,69.9 5,69.8 L5,61 C5,60.8 5.1,60.7 5.2,60.6 C5.4,60.5 5.5,60.5 5.7,60.6 L9.7,62.8 C9.9,62.9 10,63.1 10,63.2 L10,72 C10,72.2 9.9,72.3 9.8,72.4 C9.7,72.5 9.6,72.5 9.5,72.5 Z M6,69.5 L9,71.2 L9,63.6 L6,61.9 L6,69.5 Z" id="Shape" fill="#010202" fill-rule="nonzero"></path>
            <path d="M16.3,76.4 C16.2,76.4 16.1,76.4 16.1,76.3 L12.1,74.1 C11.9,74 11.8,73.8 11.8,73.7 L11.8,64.9 C11.8,64.7 11.9,64.6 12,64.5 C12.2,64.4 12.3,64.4 12.5,64.5 L16.5,66.7 C16.7,66.8 16.8,67 16.8,67.1 L16.8,75.9 C16.8,76.1 16.7,76.2 16.6,76.3 C16.4,76.3 16.4,76.4 16.3,76.4 Z M12.8,73.3 L15.8,75 L15.8,67.4 L12.8,65.7 L12.8,73.3 Z" id="Shape" fill="#010202" fill-rule="nonzero"></path>
            <path d="M23,80.2 C22.9,80.2 22.8,80.2 22.8,80.1 L18.8,77.9 C18.6,77.8 18.5,77.6 18.5,77.5 L18.5,68.7 C18.5,68.5 18.6,68.4 18.7,68.3 C18.9,68.2 19,68.2 19.2,68.3 L23.2,70.5 C23.4,70.6 23.5,70.8 23.5,70.9 L23.5,79.7 C23.5,79.9 23.4,80 23.3,80.1 C23.2,80.2 23.1,80.2 23,80.2 Z M19.5,77.2 L22.5,78.9 L22.5,71.3 L19.5,69.6 L19.5,77.2 Z" id="Shape" fill="#010202" fill-rule="nonzero"></path>
            <path d="M29.7,84.1 C29.6,84.1 29.5,84.1 29.5,84 L25.5,81.8 C25.3,81.7 25.2,81.5 25.2,81.4 L25.2,72.6 C25.2,72.4 25.3,72.3 25.4,72.2 C25.6,72.1 25.7,72.1 25.9,72.2 L29.9,74.4 C30.1,74.5 30.2,74.7 30.2,74.8 L30.2,83.6 C30.2,83.8 30.1,83.9 30,84 C29.9,84 29.8,84.1 29.7,84.1 Z M26.2,81 L29.2,82.7 L29.2,75.1 L26.2,73.4 L26.2,81 Z" id="Shape" fill="#010202" fill-rule="nonzero"></path>
            <polygon id="Path" points="36.1 89.7 36.1 62.3 20.4 53.5 19.4 53 18 52.2 17 51.6 1.3 42.8 1.3 70.2"></polygon>
            <path d="M48.7,53 C49.5,53 50.3,53.1 51,53.3 L71.4,42 L36.6,22.6 L20.4,31.6 L19.4,32.2 L18,33 L17,33.6 L1.8,42 L17,50.4 L18,51 L19.5,51.8 L20.5,52.4 L36.7,61.4 L40.5,59.3 C41.4,55.7 44.8,53 48.7,53 Z" id="Path"></path>
            <polygon id="Path" points="18 23.7 18 31.8 19.4 31 19.4 23.7"></polygon>
            <path d="M40.1,60.6 L40.1,60.6 L40.1,60.7 C40.1,60.7 40.1,60.6 40.1,60.6 Z" id="Path" fill="#FFFFFF" fill-rule="nonzero"></path>
            <polygon id="Path" fill="#010202" fill-rule="nonzero" points="18 33 19.4 32.2 19.4 31 18 31.8 17 32.4 17 33.5"></polygon>
            <polygon id="Path" fill="#010202" fill-rule="nonzero" points="72.4 42 72 42.2 72.4 42.2"></polygon>
            <path d="M66.6,45.7 C66.4,45.7 66.2,45.9 66.1,46.1 L66.7,45.7 C66.7,45.7 66.6,45.7 66.6,45.7 Z" id="Path" fill="#010202" fill-rule="nonzero"></path>
            <path d="M70.1,43.3 L69.8,43.5 C69.9,43.5 70,43.4 70.1,43.3 Z" id="Path" fill="#010202" fill-rule="nonzero"></path>
            <path d="M72.1,67.9 L72.5,67.9 L72.5,67.5 C72.3,67.6 72.2,67.7 72.1,67.9 Z" id="Path" fill="#010202" fill-rule="nonzero"></path>
            <path d="M71.3,70.7 C71.5,70.7 71.7,70.5 71.8,70.3 L71.1,70.7 C71.2,70.7 71.3,70.7 71.3,70.7 Z" id="Path" fill="#010202" fill-rule="nonzero"></path>
            <path d="M53.6,53.1 C53.4,53 53.3,52.9 53.3,52.7 L53,52.9 L53,53.5 L53.6,53.1 Z" id="Path" fill="#010202" fill-rule="nonzero"></path>
            <path d="M52.4,53.8 C52.3,53.8 52.2,53.7 52.1,53.7 C52.1,53.7 52.1,53.7 52.1,53.7 C52.2,53.7 52.2,53.8 52.4,53.8 L52.4,53.8 Z" id="Path" fill="#010202" fill-rule="nonzero"></path>
            <path d="M40.1,60.6 C40.1,60.4 40.2,60.2 40.2,60 L40.1,60 L40.1,60.6 L40.1,60.6 Z" id="Path" fill="#010202" fill-rule="nonzero"></path>
            <path d="M42.6,86.7 C42.8,86.7 43,86.5 43.1,86.3 L42.5,86.6 C42.5,86.7 42.5,86.7 42.6,86.7 Z" id="Path" fill="#010202" fill-rule="nonzero"></path>
            <path d="M39.7,60.8 L40.1,60.6 L40.1,60 L39.7,60.3 C39.8,60.4 39.8,60.5 39.8,60.6 C39.8,60.7 39.8,60.7 39.7,60.8 Z" id="Path" fill="#010202" fill-rule="nonzero"></path>
            <path d="M37.7,61.8 C37.4,61.8 37.2,62 37.2,62.2 L37.9,61.8 C37.8,61.8 37.7,61.8 37.7,61.8 Z" id="Path" fill="#010202" fill-rule="nonzero"></path>
            <path d="M39.3,61.1 L39.8,60.8 C39.8,60.7 39.9,60.7 39.9,60.6 C39.9,60.5 39.9,60.4 39.8,60.3 L39,60.8 C38.9,60.9 39.1,61.1 39.3,61.1 Z" id="Path" fill="#010202" fill-rule="nonzero"></path>
            <g id="Group" fill="#010202" fill-rule="nonzero">
                <circle id="Oval" cx="69.7" cy="52.7" r="1"></circle>
                <circle id="Oval" cx="66.6" cy="49.5" r="1"></circle>
                <circle id="Oval" cx="68.2" cy="51.1" r="1"></circle>
                <circle id="Oval" cx="69.7" cy="46.3" r="1"></circle>
                <circle id="Oval" cx="69.7" cy="49.4" r="1"></circle>
                <circle id="Oval" cx="71.3" cy="47.8" r="1"></circle>
                <circle id="Oval" cx="71.3" cy="51" r="1"></circle>
                <circle id="Oval" cx="68.2" cy="47.8" r="1"></circle>
                <circle id="Oval" cx="71.3" cy="44.6" r="1"></circle>
                <path d="M71.3,69.7 C71,69.7 70.8,69.9 70.8,70.2 C70.8,70.4 70.9,70.6 71.1,70.7 L71.8,70.3 C71.8,70.3 71.8,70.2 71.8,70.2 C71.8,69.9 71.6,69.7 71.3,69.7 Z" id="Path"></path>
                <circle id="Oval" cx="63.3" cy="49.5" r="1"></circle>
                <circle id="Oval" cx="63.3" cy="52.6" r="1"></circle>
                <circle id="Oval" cx="64.9" cy="51" r="1"></circle>
                <circle id="Oval" cx="56.9" cy="52.7" r="1"></circle>
                <circle id="Oval" cx="58.5" cy="54.3" r="1"></circle>
                <circle id="Oval" cx="60.2" cy="52.7" r="1"></circle>
                <circle id="Oval" cx="55.4" cy="54.2" r="1"></circle>
                <circle id="Oval" cx="64.9" cy="47.8" r="1"></circle>
                <circle id="Oval" cx="61.8" cy="51" r="1"></circle>
                <circle id="Oval" cx="58.5" cy="51" r="1"></circle>
                <circle id="Oval" cx="58.5" cy="67.1" r="1"></circle>
                <circle id="Oval" cx="56.9" cy="55.8" r="1"></circle>
                <circle id="Oval" cx="53.8" cy="78.3" r="1"></circle>
                <circle id="Oval" cx="53.8" cy="75.1" r="1"></circle>
                <circle id="Oval" cx="55.4" cy="76.7" r="1"></circle>
                <circle id="Oval" cx="56.9" cy="71.9" r="1"></circle>
                <circle id="Oval" cx="56.9" cy="75" r="1"></circle>
                <circle id="Oval" cx="58.5" cy="73.5" r="1"></circle>
                <circle id="Oval" cx="60.2" cy="75" r="1"></circle>
                <circle id="Oval" cx="60.2" cy="71.9" r="1"></circle>
                <circle id="Oval" cx="58.5" cy="76.6" r="1"></circle>
                <circle id="Oval" cx="53.8" cy="71.8" r="1"></circle>
                <circle id="Oval" cx="55.4" cy="73.4" r="1"></circle>
                <circle id="Oval" cx="55.4" cy="70.3" r="1"></circle>
                <circle id="Oval" cx="56.9" cy="68.6" r="1"></circle>
                <circle id="Oval" cx="58.5" cy="70.2" r="1"></circle>
                <circle id="Oval" cx="44.1" cy="78.3" r="1"></circle>
                <circle id="Oval" cx="45.7" cy="79.9" r="1"></circle>
                <circle id="Oval" cx="40.9" cy="78.3" r="1"></circle>
                <circle id="Oval" cx="40.9" cy="75.1" r="1"></circle>
                <circle id="Oval" cx="42.6" cy="79.8" r="1"></circle>
                <circle id="Oval" cx="42.6" cy="76.7" r="1"></circle>
                <circle id="Oval" cx="44.1" cy="71.9" r="1"></circle>
                <circle id="Oval" cx="44.1" cy="75" r="1"></circle>
                <circle id="Oval" cx="45.7" cy="73.5" r="1"></circle>
                <circle id="Oval" cx="45.7" cy="76.6" r="1"></circle>
                <circle id="Oval" cx="40.9" cy="71.8" r="1"></circle>
                <circle id="Oval" cx="40.9" cy="68.7" r="1"></circle>
                <circle id="Oval" cx="42.6" cy="73.4" r="1"></circle>
                <circle id="Oval" cx="42.6" cy="70.3" r="1"></circle>
                <circle id="Oval" cx="44.1" cy="84.7" r="1"></circle>
                <circle id="Oval" cx="40.9" cy="84.7" r="1"></circle>
                <circle id="Oval" cx="40.9" cy="81.5" r="1"></circle>
                <path d="M42.6,85.7 C42.3,85.7 42.1,85.9 42.1,86.2 C42.1,86.4 42.2,86.6 42.4,86.7 L43,86.4 C43,86.4 43,86.3 43,86.3 C43.1,85.9 42.9,85.7 42.6,85.7 Z" id="Path"></path>
                <circle id="Oval" cx="42.6" cy="83.1" r="1"></circle>
                <circle id="Oval" cx="44.1" cy="81.5" r="1"></circle>
                <circle id="Oval" cx="45.7" cy="83" r="1"></circle>
                <path d="M37.7,62.8 C38,62.8 38.2,62.6 38.2,62.3 C38.2,62.1 38.1,61.9 37.9,61.9 L37.2,62.3 C37.2,62.3 37.2,62.3 37.2,62.4 C37.2,62.6 37.4,62.8 37.7,62.8 Z" id="Path"></path>
                <circle id="Oval" cx="37.7" cy="65.4" r="1"></circle>
                <circle id="Oval" cx="39.3" cy="63.9" r="1"></circle>
                <circle id="Oval" cx="39.3" cy="67" r="1"></circle>
                <path d="M39.7,60.8 L39.2,61.1 C39.2,61.1 39.2,61.1 39.2,61.1 C39.5,61.1 39.7,61 39.7,60.8 Z" id="Path"></path>
                <circle id="Oval" cx="37.7" cy="75.1" r="1"></circle>
                <circle id="Oval" cx="37.7" cy="78.2" r="1"></circle>
                <circle id="Oval" cx="39.3" cy="76.7" r="1"></circle>
                <circle id="Oval" cx="39.3" cy="79.8" r="1"></circle>
                <circle id="Oval" cx="37.7" cy="68.7" r="1"></circle>
                <circle id="Oval" cx="37.7" cy="71.8" r="1"></circle>
                <circle id="Oval" cx="39.3" cy="70.3" r="1"></circle>
                <circle id="Oval" cx="39.3" cy="73.4" r="1"></circle>
                <circle id="Oval" cx="37.7" cy="87.9" r="1"></circle>
                <circle id="Oval" cx="37.7" cy="81.5" r="1"></circle>
                <circle id="Oval" cx="37.7" cy="84.7" r="1"></circle>
                <circle id="Oval" cx="39.3" cy="83.1" r="1"></circle>
                <circle id="Oval" cx="39.3" cy="86.2" r="1"></circle>
                <path d="M66.6,46.7 C66.9,46.7 67.1,46.5 67.1,46.2 C67.1,46 67,45.8 66.8,45.7 L66.2,46.1 C66.2,46.1 66.2,46.2 66.2,46.2 C66.1,46.5 66.3,46.7 66.6,46.7 Z" id="Path"></path>
                <circle id="Oval" cx="63.3" cy="71.8" r="1"></circle>
                <circle id="Oval" cx="61.8" cy="73.5" r="1"></circle>
                <circle id="Oval" cx="61.8" cy="70.2" r="1"></circle>
                <circle id="Oval" cx="52.1" cy="76.7" r="1"></circle>
                <circle id="Oval" cx="52.1" cy="79.8" r="1"></circle>
                <circle id="Oval" cx="52.1" cy="70.3" r="1"></circle>
                <circle id="Oval" cx="52.1" cy="73.4" r="1"></circle>
                <path d="M72.9,56.5 L72.9,42 C72.9,41.9 72.9,41.8 72.8,41.7 C72.8,41.7 72.8,41.7 72.7,41.6 C72.7,41.6 72.6,41.5 72.6,41.5 C72.6,41.5 72.6,41.5 72.6,41.5 C72.6,41.5 72.6,41.5 72.6,41.5 L36.8,21.5 C36.6,21.4 36.5,21.4 36.3,21.5 L20.4,30.4 L20.4,25.8 C26.5,24.8 31.1,19.5 31.1,13.2 C31.1,6.1 25.4,0.4 18.3,0.4 C11.2,0.4 5.5,6.1 5.5,13.2 C5.5,19.8 10.5,25.2 16.9,25.9 L16.9,32.3 L17.9,31.7 L17.9,25.9 C18,25.9 18.2,25.9 18.3,25.9 C18.7,25.9 19,25.9 19.3,25.8 L19.3,30.8 L19.3,31.9 L20.3,31.3 L36.5,22.3 L71.4,42 L51.1,53.3 C50.4,53.1 49.6,53 48.8,53 C44.8,53 41.5,55.7 40.5,59.3 L36.7,61.4 L20.5,52.4 L19.5,51.8 L18,51 L17,50.4 L1.8,42 L17,33.5 L17,32.4 L0.6,41.6 C0.6,41.6 0.6,41.6 0.6,41.6 C0.6,41.6 0.6,41.6 0.6,41.6 C0.5,41.6 0.5,41.7 0.5,41.7 C0.5,41.7 0.5,41.7 0.4,41.8 C0.4,41.9 0.3,42 0.3,42.1 L0.3,70.6 C0.3,70.8 0.4,70.9 0.6,71 L36.4,91 C36.4,91 36.4,91 36.4,91 C36.4,91 36.4,91 36.4,91 L36.4,91 C36.5,91 36.6,91.1 36.6,91.1 C36.6,91.1 36.8,91.1 36.8,91 L36.8,91 C36.8,91 36.8,91 36.8,91 C36.8,91 36.8,91 36.8,91 L47.3,85.2 L47.3,90.5 C47.3,90.6 47.3,91.5 49,91.5 C50.7,91.5 50.7,90.6 50.7,90.5 L50.7,83.2 L64.5,75.5 L64.5,82.7 C64.5,82.7 64.5,83.8 66.1,83.8 C67.5,83.8 67.9,83 67.9,82.9 L67.9,73.6 L72.5,71 C72.7,70.9 72.8,70.7 72.8,70.6 L72.8,66.9 C73.9,65.5 74.5,63.7 74.5,61.7 C74.7,59.7 74,57.9 72.9,56.5 Z M36.1,89.7 L1.3,70.2 L1.3,42.8 L17,51.6 L18,52.2 L19.5,53 L20.5,53.6 L36.2,62.3 L36.2,89.7 L36.1,89.7 Z M47.3,71.4 C47,71.4 46.8,71.6 46.8,71.9 C46.8,72.2 47,72.4 47.3,72.4 L47.3,74.5 C47,74.5 46.8,74.7 46.8,75 C46.8,75.3 47,75.5 47.3,75.5 L47.3,77.8 C47,77.8 46.8,78 46.8,78.3 C46.8,78.6 47,78.8 47.3,78.8 L47.3,80.6 L47.3,81 C47,81 46.8,81.2 46.8,81.5 C46.8,81.8 47,82 47.3,82 L47.3,84 L43,86.4 C42.9,86.6 42.8,86.8 42.5,86.8 C42.4,86.8 42.4,86.8 42.3,86.8 L41,87.5 C41,87.5 40.9,87.5 40.9,87.5 C40.7,87.5 40.5,87.6 40.4,87.8 L40.1,88 L37.1,89.7 L37.1,80.7 L37.1,67.9 L37.1,62.3 L37.1,62.3 C37.1,62.1 37.3,61.9 37.6,61.9 C37.7,61.9 37.7,61.9 37.8,62 L39.2,61.2 C39,61.2 38.8,61 38.8,60.9 L39.6,60.4 L40,60.1 L40.1,60 C40.1,60.2 40,60.4 40,60.6 C40,60.6 40,60.7 40,60.7 C40,61 39.9,61.4 39.9,61.7 C39.9,62 39.9,62.3 40,62.7 C40.1,63.5 40.3,64.3 40.6,65 C40.4,65.1 40.3,65.2 40.3,65.4 C40.3,65.7 40.5,65.9 40.8,65.9 C40.9,65.9 40.9,65.9 41,65.8 C41.4,66.5 41.9,67.2 42.5,67.8 C42.8,68.1 43.1,68.3 43.4,68.6 C43.4,68.6 43.4,68.6 43.4,68.6 C43.4,68.9 43.6,69.1 43.9,69.1 C44,69.1 44,69.1 44.1,69.1 C44.5,69.3 44.9,69.6 45.4,69.7 C45.2,69.8 45.1,69.9 45.1,70.2 C45.1,70.5 45.3,70.7 45.6,70.7 C45.9,70.7 46.1,70.5 46.1,70.2 C46.1,70.1 46.1,70 46,69.9 C46.4,70 46.8,70.1 47.2,70.2 L47.2,71.4 L47.3,71.4 Z M49.8,80.7 L49.8,82.6 L49.8,83.2 L49.8,83.8 L49.8,90.4 C49.7,90.4 49.6,90.5 49.1,90.5 C48.6,90.5 48.4,90.4 48.4,90.4 L48.4,84.6 L48.4,84 L48.4,83.4 L48.4,80.7 L48.4,70.3 C48.5,70.3 48.5,70.3 48.6,70.3 C48.7,70.3 48.7,70.3 48.8,70.3 C49.1,70.3 49.3,70.3 49.5,70.3 C49.6,70.3 49.7,70.3 49.8,70.3 L49.8,80.7 Z M70.1,43.3 C70,43.4 69.9,43.5 69.8,43.5 L70.1,43.3 Z M64.6,73.1 C64.5,73.2 64.5,73.3 64.5,73.5 C64.5,73.7 64.6,73.8 64.6,73.9 L64.6,74.5 L63.7,75 C63.6,74.9 63.5,74.8 63.3,74.8 C63,74.8 62.8,75 62.8,75.3 C62.8,75.4 62.8,75.4 62.8,75.5 L57.3,78.5 C57.3,78.5 57.3,78.5 57.3,78.5 C57.3,78.2 57.1,78 56.8,78 C56.5,78 56.3,78.2 56.3,78.5 C56.3,78.7 56.4,78.9 56.6,78.9 L55.5,79.5 C55.4,79.5 55.4,79.5 55.3,79.5 C55.1,79.5 54.9,79.7 54.8,79.9 L53.1,80.8 L52.8,81.5 L52.8,80.9 L50.8,82 L50.8,81.9 C50.9,81.8 51,81.7 51,81.5 C51,81.3 50.9,81.2 50.8,81.1 L50.8,80.6 L50.8,78.6 C50.9,78.5 51,78.4 51,78.2 C51,78 50.9,77.9 50.8,77.8 L50.8,75.4 C50.9,75.3 51,75.2 51,75 C51,74.8 50.9,74.7 50.8,74.6 L50.8,72.1 C50.9,72 51,71.9 51,71.7 C51,71.5 50.9,71.4 50.8,71.3 L50.8,69.9 C51.6,69.7 52.3,69.4 53,69.1 C53.1,69 53.3,68.9 53.4,68.9 C53.5,69 53.6,69.1 53.8,69.1 C54.1,69.1 54.3,68.9 54.3,68.6 C54.3,68.5 54.3,68.4 54.2,68.3 C54.4,68.1 54.6,67.9 54.9,67.7 C55,67.6 55.2,67.4 55.3,67.3 C55.4,67.3 55.4,67.4 55.5,67.4 C55.8,67.4 56,67.2 56,66.9 C56,66.8 56,66.7 55.9,66.6 C56.1,66.3 56.3,65.9 56.5,65.6 C56.6,65.8 56.8,65.9 57,65.9 C57.3,65.9 57.5,65.7 57.5,65.4 C57.5,65.1 57.3,64.9 57,64.9 C56.9,64.9 56.9,64.9 56.9,64.9 C57.2,64.1 57.4,63.3 57.5,62.4 C57.7,64.5 58.6,66.3 60,67.7 C60.1,67.8 60.2,67.9 60.3,68 C60.3,68 60.3,68 60.2,68 C59.9,68 59.7,68.2 59.7,68.5 C59.7,68.8 59.9,69 60.2,69 C60.5,69 60.7,68.8 60.7,68.5 C60.7,68.4 60.7,68.4 60.7,68.3 C61.8,69.2 63.1,69.8 64.5,70 C64.5,70 64.5,70 64.5,70.1 C64.5,70.2 64.6,70.4 64.6,70.5 L64.6,73.1 L64.6,73.1 Z M67,71.6 L67,72 L67,73 L67,73.6 L67,74.2 L67,82.7 C66.9,82.8 66.7,82.9 66.2,82.9 C65.8,82.9 65.6,82.8 65.6,82.8 C65.6,82.8 65.6,82.8 65.6,82.8 L65.6,75 L65.6,74.4 L65.6,73.8 L65.6,70.4 C65.7,70.4 65.7,70.4 65.8,70.4 C65.9,70.4 66,70.4 66,70.4 C66.4,70.4 66.7,70.4 67,70.3 L67,71.6 L67,71.6 Z M66.8,53 C67,52.9 67.1,52.8 67.1,52.6 C67.1,52.3 66.9,52.1 66.6,52.1 C66.3,52.1 66.1,52.3 66.1,52.6 C66.1,52.8 66.2,52.9 66.3,53 C66.2,53 66.1,53 66,53 C65.9,53 65.8,53 65.8,53 C64.5,53 63.3,53.3 62.2,53.9 C62.1,53.8 62,53.8 61.9,53.8 C61.6,53.8 61.4,54 61.4,54.3 C61.4,54.3 61.4,54.4 61.4,54.4 C61.1,54.6 60.8,54.8 60.5,55.1 C60.4,55.2 60.3,55.3 60.2,55.4 C60,55.4 59.9,55.6 59.8,55.8 C59.4,56.2 59.1,56.6 58.8,57 C58.7,57 58.7,57 58.6,57 C58.3,57 58.1,57.2 58.1,57.5 C58.1,57.7 58.2,57.8 58.3,57.9 C57.8,58.8 57.5,59.8 57.4,60.9 C57.4,60.5 57.3,60.1 57.2,59.6 C57.3,59.5 57.4,59.4 57.4,59.2 C57.4,58.9 57.2,58.7 56.9,58.7 C56.9,58.7 56.9,58.7 56.9,58.7 C56.4,57.3 55.5,56.1 54.4,55.1 C54,54.7 53.5,54.4 53,54.2 C52.9,54.1 52.7,54.1 52.6,54 C52.6,54 52.5,53.9 52.5,53.9 L52.5,53.9 C52.4,53.9 52.4,53.8 52.3,53.8 C52.3,53.8 52.3,53.8 52.3,53.8 C52.4,53.8 52.5,53.8 52.6,53.9 L53.2,53.6 L53.2,53 L53.5,52.8 C53.5,53 53.6,53.1 53.8,53.2 C53.9,53.2 53.9,53.2 54,53.2 C54.2,53.2 54.4,53 54.5,52.8 L60,49.7 C60.1,49.9 60.2,50 60.4,50 C60.7,50 60.9,49.8 60.9,49.5 C60.9,49.4 60.9,49.3 60.8,49.3 L66,46.4 L66.3,46.2 C66.4,46 66.5,45.8 66.8,45.8 C66.9,45.8 66.9,45.8 67,45.8 L68.2,45.1 C68.3,45.2 68.4,45.2 68.5,45.2 C68.8,45.2 69,45 69,44.7 C69,44.7 69,44.7 69,44.7 L72.2,42.9 L72.2,55 L72.2,55.3 C72.1,55.2 72,55.1 71.8,55 C71.6,54.9 71.5,54.8 71.3,54.6 C71.4,54.6 71.5,54.7 71.6,54.7 C71.9,54.7 72.1,54.5 72.1,54.2 C72.1,53.9 71.9,53.7 71.6,53.7 C71.3,53.7 71.1,53.9 71.1,54.2 C71.1,54.3 71.2,54.4 71.2,54.5 C69.8,53.7 68.4,53.2 66.8,53 Z M71.9,70.2 L71.8,70.3 C71.8,70.5 71.6,70.7 71.3,70.7 C71.2,70.7 71.2,70.7 71.1,70.7 L69.7,71.5 C69.7,71.5 69.6,71.5 69.6,71.5 C69.4,71.5 69.2,71.6 69.1,71.8 L68,72.4 L68,70.7 C68.1,70.7 68.1,70.7 68.2,70.7 C68.5,70.7 68.7,70.5 68.7,70.2 C68.7,70.1 68.6,69.9 68.6,69.9 C69.9,69.5 71,68.8 71.9,67.9 L71.9,70.2 Z M72.4,67.9 L72,67.9 C72.1,67.8 72.2,67.7 72.4,67.5 L72.4,67.9 Z" id="Shape"></path>
            </g>
        </g>
    </g>
</svg>