<?xml version="1.0" encoding="UTF-8"?>
<svg width="78px" height="88px" viewBox="0 0 78 88" version="1.1" xmlns="http://www.w3.org/2000/svg" xmlns:xlink="http://www.w3.org/1999/xlink">
    <title>noun_Building Block_1220883</title>
    <g id="Page-1" stroke="none" stroke-width="1" fill="none" fill-rule="evenodd">
        <g id="noun_Building-Block_1220883" fill="#744ABC" fill-rule="nonzero">
            <path d="M17.262159,0.99035 C16.991259,0.99035 16.698559,1.03955 16.449559,1.1466 C16.200859,1.25369 15.979659,1.41862 15.793359,1.61535 L1.230859,16.99035 C1.019659,17.20751 0.856559,17.48378 0.762159,17.7716 C0.667159,18.05942 0.658259,18.37776 0.699159,18.67785 L0.699159,84.99042 C0.699159,85.25222 0.755159,85.52982 0.855459,85.77162 C0.955659,86.01352 1.107859,86.21152 1.292959,86.39662 C1.478159,86.58182 1.676059,86.73392 1.917959,86.83412 C2.159759,86.93432 2.437459,86.99042 2.699159,86.99042 L60.449159,86.99042 C60.763559,87.03542 61.086559,87.00042 61.386759,86.89642 C61.686759,86.79262 61.948859,86.62622 62.167959,86.39642 C62.167959,86.39642 62.194959,86.39642 62.198959,86.39642 C62.198959,86.39642 62.198959,86.36942 62.198959,86.36542 L76.761559,70.99042 C76.935159,70.80692 77.074359,70.60012 77.167759,70.36542 C77.260759,70.13062 77.323959,69.86802 77.323959,69.61542 L77.323959,2.99035 C77.323959,2.72856 77.267959,2.48221 77.167759,2.24035 C77.067559,1.99849 76.915359,1.76921 76.730259,1.5841 C76.545059,1.39898 76.315859,1.24679 76.073959,1.1466 C75.832259,1.0464 75.585759,0.99035 75.323959,0.99035 L17.261559,0.99035 L17.262159,0.99035 Z M4.699559,20.36535 L58.762159,20.36535 L58.762159,82.99042 L45.449559,82.99042 L45.449559,78.86542 C45.449559,74.55222 41.894459,70.99042 37.574559,70.99042 L25.887159,70.99042 C21.567359,70.99042 18.012159,74.55222 18.012159,78.86542 L18.012159,82.99042 L4.699559,82.99042 L4.699559,20.36535 L4.699559,20.36535 Z" id="Shape"></path>
            <polygon id="Path" points="27.854659 50.58652 35.584659 50.58652 35.584659 58.31652 27.854659 58.31652"></polygon>
            <polygon id="Path" points="10.554659 50.89652 18.284659 50.89652 18.284659 58.62652 10.554659 58.62652"></polygon>
            <polygon id="Path" points="45.154659 50.89652 52.894659 50.89652 52.894659 58.62652 45.154659 58.62652"></polygon>
            <polygon id="Path" points="27.854659 33.29649 35.584659 33.29649 35.584659 41.02649 27.854659 41.02649"></polygon>
            <polygon id="Path" points="10.554659 33.60649 18.284659 33.60649 18.284659 41.33649 10.554659 41.33649"></polygon>
            <polygon id="Path" points="45.154659 33.60649 52.894659 33.60649 52.894659 41.33649 45.154659 41.33649"></polygon>
        </g>
    </g>
</svg>